<svg width="264" height="140" viewBox="0 0 264 140" fill="none" xmlns="http://www.w3.org/2000/svg">
<rect x="19.7884" width="253.089" height="74.6289" rx="35.6921" transform="rotate(15.3763 19.7884 0)" fill="white"/>
<path d="M55.1778 66.2831C64.0692 68.7283 73.2598 63.5023 75.7049 54.6108C78.1501 45.7194 72.9241 36.5288 64.0326 34.0837C55.1412 31.6385 45.9506 36.8645 43.5055 45.756C41.0603 54.6474 46.2863 63.838 55.1778 66.2831Z" fill="#F4F4F4"/>
<path d="M78.3724 55.3459C81.2232 44.9793 75.1296 34.263 64.7631 31.4122C54.3965 28.5614 43.6801 34.655 40.8293 45.0215C37.9785 55.3881 44.0721 66.1045 54.4387 68.9553C64.8053 71.8061 75.5216 65.7125 78.3724 55.3459ZM73.6795 54.0554C73.1711 55.9042 72.3035 57.6348 71.1262 59.1483C69.949 60.6619 68.4852 61.9287 66.8183 62.8765C65.1515 63.8243 63.3143 64.4345 61.4116 64.6723C59.5089 64.9101 57.5781 64.7708 55.7292 64.2624C53.8804 63.754 52.1498 62.8864 50.6363 61.7091C49.1227 60.5319 47.8559 59.068 46.9081 57.4012C45.9603 55.7343 45.3501 53.8971 45.1123 51.9945C44.8745 50.0918 45.0138 48.1609 45.5222 46.3121C46.549 42.5782 49.0171 39.4051 52.3834 37.491C55.7497 35.5768 59.7386 35.0782 63.4725 36.1051C67.2064 37.1319 70.3795 39.5999 72.2936 42.9663C74.2078 46.3326 74.7063 50.3215 73.6795 54.0554ZM57.0198 59.5695C54.5305 58.885 52.4151 57.2396 51.139 54.9954C49.8629 52.7511 49.5305 50.0919 50.2151 47.6026C50.8996 45.1134 52.545 42.998 54.7892 41.7219C57.0335 40.4458 59.6927 40.1134 62.182 40.798C64.6712 41.4825 66.7866 43.1279 68.0627 45.3721C69.3388 47.6163 69.6712 50.2756 68.9866 52.7648C68.3021 55.2541 66.6567 57.3695 64.4125 58.6456C62.1683 59.9217 59.509 60.2541 57.0198 59.5695ZM64.2938 51.4743C64.4632 50.858 64.5097 50.2144 64.4304 49.5802C64.3511 48.9459 64.1477 48.3335 63.8318 47.7779C63.5159 47.2223 63.0936 46.7344 62.5891 46.3419C62.0846 45.9495 61.5077 45.6603 60.8914 45.4908C60.2751 45.3214 59.6315 45.2749 58.9973 45.3542C58.3631 45.4335 57.7507 45.6369 57.195 45.9528C56.6394 46.2687 56.1515 46.691 55.7591 47.1955C55.3667 47.7 55.0775 48.2769 54.908 48.8932C54.5657 50.1378 54.7319 51.4674 55.3699 52.5895C56.008 53.7117 57.0657 54.5343 58.3103 54.8766C59.5549 55.2189 60.8846 55.0527 62.0067 54.4147C63.1288 53.7766 63.9515 52.7189 64.2938 51.4743Z" fill="#F8312F"/>
<path d="M60.1047 49.8852C60.1953 50.0476 60.3174 50.1905 60.4637 50.3053C60.6101 50.4201 60.7779 50.5047 60.9573 50.554C61.1366 50.6033 61.324 50.6164 61.5086 50.5926C61.6931 50.5688 61.871 50.5084 62.0319 50.4151L70.5258 45.5932C70.6885 45.5032 70.8315 45.3815 70.9464 45.2354C71.0614 45.0893 71.146 44.9218 71.1953 44.7425C71.2446 44.5633 71.2576 44.376 71.2335 44.1916C71.2094 44.0073 71.1487 43.8297 71.0549 43.6691C70.9643 43.5066 70.8423 43.3638 70.6959 43.249C70.5495 43.1342 70.3818 43.0496 70.2024 43.0003C70.023 42.951 69.8356 42.9378 69.6511 42.9617C69.4666 42.9855 69.2887 43.0458 69.1277 43.1391L60.6338 47.9611C60.3118 48.1491 60.0762 48.4558 59.9773 48.8153C59.8784 49.1749 59.9241 49.5589 60.1047 49.8852Z" fill="#9B9B9B"/>
<path d="M71.8537 40.2462L71.8338 37.5654C71.8064 34.361 73.5173 31.3822 76.3053 29.81L78.0804 28.8007C78.3033 28.6708 78.5565 28.6018 78.8145 28.6008C79.0725 28.5997 79.3263 28.6666 79.5502 28.7947C79.7742 28.9228 79.9605 29.1076 80.0904 29.3305C80.2204 29.5534 80.2893 29.8066 80.2904 30.0646L80.4066 35.7114L71.8537 40.2462ZM74.555 44.7531L76.817 46.1457C79.5182 47.814 82.9197 47.8408 85.6825 46.2012L87.4488 45.1625C88.4367 44.5929 88.4655 43.1605 87.5134 42.5722L82.6748 39.7004L74.555 44.7531Z" fill="#46A4FB"/>
<path d="M63.2899 48.0889C63.6161 48.6634 64.0599 49.1626 64.5924 49.5537C65.1248 49.9448 65.7338 50.2191 66.3796 50.3586C67.0254 50.498 67.6933 50.4995 68.3397 50.363C68.9861 50.2265 69.5964 49.955 70.1306 49.5663L81.5397 41.2655C82.1551 40.8134 82.5831 40.151 82.7422 39.4042C82.9014 38.6573 82.7806 37.878 82.4029 37.2143C82.0252 36.5506 81.4168 36.0488 80.6934 35.8042C79.97 35.5596 79.182 35.5893 78.479 35.8875L65.5071 41.4399C64.9008 41.7035 64.3569 42.0917 63.9105 42.5793C63.4641 43.067 63.1254 43.643 62.9163 44.2702C62.7072 44.8973 62.6324 45.5614 62.6967 46.2193C62.7611 46.8772 62.9632 47.5142 63.2899 48.0889Z" fill="#50E2FF"/>
<path d="M74.0783 41.9523C74.1683 42.1149 74.29 42.2579 74.4361 42.3729C74.5822 42.4879 74.7497 42.5725 74.929 42.6218C75.1082 42.6711 75.2955 42.6841 75.4799 42.66C75.6642 42.6358 75.8418 42.5751 76.0024 42.4814L84.4869 37.6569C84.6495 37.5669 84.7925 37.4452 84.9075 37.2991C85.0225 37.1531 85.1071 36.9855 85.1564 36.8062C85.2057 36.627 85.2186 36.4397 85.1945 36.2554C85.1704 36.071 85.1097 35.8934 85.016 35.7328C84.926 35.5702 84.8043 35.4272 84.6582 35.3122C84.5122 35.1972 84.3446 35.1126 84.1653 35.0633C83.9861 35.014 83.7988 35.0011 83.6145 35.0252C83.4301 35.0493 83.2525 35.11 83.0919 35.2037L74.6074 40.0282C74.4448 40.1183 74.3018 40.2399 74.1868 40.386C74.0718 40.5321 73.9872 40.6997 73.9379 40.8789C73.8886 41.0581 73.8757 41.2454 73.8998 41.4298C73.9239 41.6141 73.9846 41.7918 74.0783 41.9523Z" fill="#46A4FB"/>
<path d="M98.2816 67.5172L99.235 64.0502C99.28 63.8867 99.3675 63.7817 99.4975 63.7354C99.6305 63.6781 99.757 63.666 99.8769 63.699C100.008 63.735 100.116 63.8116 100.201 63.9288C100.289 64.0351 100.31 64.17 100.265 64.3335L99.3119 67.8006L104.921 69.3432C105.085 69.3881 105.197 69.4717 105.257 69.5938C105.317 69.7159 105.331 69.8369 105.298 69.9569C105.265 70.0768 105.191 70.1738 105.077 70.248C104.963 70.3221 104.824 70.3367 104.66 70.2917L92.444 66.9322C92.2805 66.8872 92.1686 66.8037 92.1084 66.6815C92.059 66.5624 92.0509 66.4429 92.0838 66.323C92.1168 66.2031 92.185 66.1045 92.2883 66.0274C92.4025 65.9533 92.5413 65.9387 92.7049 65.9836L98.2816 67.5172ZM96.9823 53.7558L107.367 56.6116C107.531 56.6566 107.642 56.7401 107.703 56.8622C107.763 56.9843 107.777 57.1053 107.744 57.2253C107.711 57.3452 107.637 57.4422 107.523 57.5164C107.409 57.5905 107.27 57.6051 107.106 57.5601L96.7214 54.7043C96.5579 54.6593 96.446 54.5758 96.3858 54.4537C96.3255 54.3316 96.3119 54.2105 96.3449 54.0906C96.3779 53.9707 96.4515 53.8736 96.5657 53.7995C96.6799 53.7254 96.8187 53.7108 96.9823 53.7558ZM102.145 62.423L103.875 58.1141C103.933 57.9893 104.029 57.8982 104.162 57.841C104.306 57.7868 104.451 57.7915 104.598 57.8553C104.725 57.9022 104.829 57.9951 104.908 58.1341C104.99 58.2622 104.996 58.4105 104.926 58.579L103.208 62.7153L105.678 63.3944C105.841 63.4394 105.953 63.5229 106.013 63.645C106.074 63.7671 106.087 63.8882 106.054 64.0081C106.021 64.128 105.948 64.2251 105.833 64.2992C105.719 64.3733 105.58 64.3879 105.417 64.3429L94.705 61.3972C94.5414 61.3522 94.4296 61.2686 94.3693 61.1465C94.3091 61.0244 94.2954 60.9034 94.3284 60.7835C94.3614 60.6636 94.435 60.5665 94.5492 60.4924C94.6634 60.4182 94.8023 60.4037 94.9658 60.4486L97.4353 61.1277L98.0351 56.7718C98.0691 56.6053 98.1542 56.488 98.2902 56.4198C98.4292 56.3408 98.5547 56.3108 98.6667 56.3299C98.7927 56.3411 98.916 56.4043 99.0367 56.5196C99.1605 56.624 99.2083 56.7485 99.1803 56.8933L98.4819 61.4156L102.145 62.423ZM109.849 61.0937C109.924 60.8211 110.021 60.5546 110.139 60.294C110.269 60.0364 110.383 59.8333 110.483 59.6848C110.582 59.5362 110.694 59.3852 110.818 59.2318C110.953 59.0813 111.074 58.9621 111.181 58.874C111.301 58.7781 111.433 58.6797 111.578 58.5789C111.726 58.4671 111.847 58.389 111.942 58.3446C112.033 58.3111 112.151 58.2672 112.295 58.2129C112.449 58.1617 112.603 58.1159 112.755 58.0756C112.893 58.0431 113.058 58.0182 113.25 58.0007C113.443 57.9833 113.627 57.9753 113.802 57.9766C113.964 57.9859 114.151 58.0081 114.364 58.0433C114.58 58.0675 114.759 58.0991 114.901 58.1381C115.054 58.1801 115.229 58.2459 115.427 58.3356C115.639 58.4174 115.812 58.4941 115.944 58.5658C116.096 58.6544 116.25 58.7553 116.406 58.8687C116.563 58.9821 116.692 59.088 116.794 59.1864C116.904 59.2987 117.012 59.4165 117.119 59.5397C117.226 59.6629 117.305 59.7607 117.355 59.8332C117.413 59.9196 117.477 60.0487 117.548 60.2204C117.631 60.3842 117.695 60.5366 117.738 60.6775C117.796 60.8105 117.838 60.9747 117.867 61.1702C117.895 61.3656 117.914 61.5526 117.924 61.7311C117.933 61.9096 117.922 62.1412 117.891 62.4257C117.871 62.7133 117.823 62.9933 117.748 63.2659C117.673 63.5385 117.571 63.8036 117.441 64.0611C117.323 64.3217 117.214 64.5263 117.114 64.6748C117.015 64.8234 116.903 64.9744 116.778 65.1278C116.654 65.2813 116.532 65.406 116.412 65.5019C116.302 65.6009 116.17 65.6993 116.014 65.7971C115.869 65.898 115.749 65.9706 115.655 66.015C115.575 66.0515 115.457 66.0954 115.302 66.1467C115.147 66.1979 114.994 66.2437 114.842 66.284C114.704 66.3165 114.539 66.3414 114.347 66.3589C114.154 66.3763 113.969 66.3898 113.79 66.3993C113.639 66.3931 113.451 66.3763 113.224 66.3491C113.01 66.3139 112.827 66.2753 112.675 66.2333C112.533 66.1944 112.362 66.1355 112.161 66.0567C111.962 65.967 111.791 65.8849 111.648 65.8102C111.499 65.7107 111.347 65.6043 111.19 65.4909C111.034 65.3775 110.905 65.2716 110.803 65.1732C110.693 65.0609 110.585 64.9432 110.478 64.82C110.382 64.6997 110.303 64.6019 110.242 64.5264C110.183 64.44 110.118 64.3164 110.045 64.1556C109.972 63.9948 109.908 63.8424 109.854 63.6985C109.81 63.5576 109.769 63.3879 109.73 63.1895C109.702 62.994 109.683 62.807 109.673 62.6285C109.664 62.45 109.669 62.2169 109.689 61.9294C109.721 61.6448 109.774 61.3663 109.849 61.0937ZM110.879 61.377C110.807 61.6387 110.758 61.883 110.73 62.1101C110.717 62.3292 110.714 62.5102 110.722 62.653C110.729 62.7959 110.749 62.9362 110.782 63.0742C110.817 63.2012 110.869 63.356 110.936 63.5386C110.984 63.7043 111.036 63.8358 111.091 63.9332C111.146 64.0305 111.222 64.1392 111.318 64.2594C111.398 64.3518 111.478 64.4442 111.558 64.5366C111.652 64.6211 111.772 64.7186 111.918 64.8289C112.037 64.9085 112.194 64.9986 112.389 65.0992C112.587 65.1889 112.768 65.2562 112.931 65.3012C113.106 65.3491 113.301 65.3853 113.517 65.4095C113.747 65.4259 113.928 65.4287 114.06 65.4181C114.242 65.3977 114.389 65.3737 114.502 65.3461C114.629 65.3107 114.751 65.2738 114.867 65.2353C115.011 65.1811 115.131 65.1263 115.229 65.071C115.326 65.0157 115.438 64.9291 115.564 64.8114C115.726 64.6917 115.849 64.5849 115.933 64.4908C116.032 64.3889 116.121 64.2785 116.2 64.1597C116.28 64.0408 116.365 63.8823 116.454 63.6842C116.558 63.4781 116.646 63.2442 116.718 62.9826C116.79 62.7209 116.832 62.4805 116.846 62.2614C116.87 62.0452 116.88 61.8603 116.875 61.7066C116.867 61.5637 116.847 61.4234 116.815 61.2854C116.793 61.1505 116.742 60.9957 116.661 60.821C116.61 60.6662 116.557 60.5401 116.501 60.4428C116.446 60.3455 116.37 60.2367 116.274 60.1165C116.194 60.0241 116.109 59.9302 116.018 59.8348C115.937 59.7424 115.825 59.6411 115.679 59.5307C115.574 59.4432 115.417 59.3531 115.208 59.2604C115.01 59.1707 114.824 59.1019 114.649 59.0539C114.486 59.009 114.296 58.9744 114.08 58.9501C113.864 58.9258 113.683 58.923 113.537 58.9415C113.355 58.9619 113.201 58.9899 113.074 59.0253C112.958 59.0638 112.842 59.1022 112.726 59.1406C112.582 59.1949 112.461 59.2496 112.364 59.305C112.266 59.3603 112.156 59.4414 112.033 59.5482C111.885 59.66 111.762 59.7668 111.663 59.8688C111.565 59.9707 111.476 60.0811 111.396 60.1999C111.314 60.3297 111.222 60.4921 111.122 60.6873C111.032 60.8855 110.951 61.1154 110.879 61.377ZM122.603 60.4498L119.815 70.5892C119.767 70.7637 119.678 70.8741 119.548 70.9204C119.429 70.9697 119.304 70.9764 119.173 70.9404C119.053 70.9075 118.949 70.8378 118.861 70.7315C118.784 70.6282 118.769 70.4893 118.817 70.3149L121.606 60.1754C121.657 59.9901 121.74 59.8782 121.856 59.8398C121.986 59.7934 122.111 59.7867 122.231 59.8197C122.362 59.8557 122.466 59.9253 122.543 60.0286C122.634 60.124 122.654 60.2644 122.603 60.4498ZM108.75 70.783L109.622 67.6104C109.673 67.425 109.757 67.3131 109.873 67.2747C110.003 67.2283 110.128 67.2217 110.248 67.2547C110.368 67.2876 110.466 67.3558 110.544 67.4591C110.635 67.5545 110.655 67.6948 110.604 67.8802L109.839 70.6604C109.776 70.8893 109.806 71.056 109.93 71.1604C110.062 71.2787 110.269 71.3768 110.553 71.4548L118.943 73.7619C119.128 73.8129 119.241 73.891 119.283 73.9962C119.332 74.1153 119.34 74.2348 119.307 74.3547C119.274 74.4747 119.208 74.5678 119.107 74.634C119.015 74.7141 118.876 74.7287 118.691 74.6777L109.892 72.2582C109.467 72.1412 109.136 71.9799 108.9 71.7741C108.671 71.5822 108.621 71.2518 108.75 70.783ZM126.828 66.0795L135.61 68.4946C135.773 68.5396 135.88 68.6216 135.929 68.7407C135.992 68.8519 136.006 68.9729 135.97 69.1038C135.937 69.2237 135.863 69.3207 135.749 69.3949C135.649 69.4611 135.517 69.4717 135.353 69.4268L126.571 67.0117L125.892 69.4811C125.859 69.6011 125.849 69.7037 125.86 69.789C125.875 69.8634 125.904 69.9299 125.946 69.9885C126.018 70.067 126.101 70.1307 126.193 70.1795C126.288 70.2173 126.39 70.2513 126.499 70.2813L134.856 72.5794C135.009 72.6214 135.115 72.7034 135.175 72.8255C135.235 72.9477 135.249 73.0687 135.216 73.1886C135.186 73.2976 135.113 73.3947 134.995 73.4797C134.881 73.5538 134.748 73.5699 134.595 73.5279L125.829 71.1174C125.622 71.0604 125.436 70.9916 125.27 70.9109C125.105 70.8302 124.961 70.7144 124.838 70.5634C124.761 70.4601 124.716 70.3246 124.704 70.157C124.691 69.9893 124.715 69.7965 124.775 69.5784L126.502 63.2985C126.562 63.0805 126.64 62.9026 126.737 62.765C126.836 62.6164 126.945 62.5175 127.064 62.4681C127.247 62.4011 127.43 62.3752 127.614 62.3905C127.797 62.4057 127.992 62.4418 128.199 62.4988L136.785 64.8599C136.938 64.9019 137.044 64.9839 137.105 65.106C137.165 65.2282 137.178 65.3492 137.145 65.4691C137.112 65.589 137.037 65.6915 136.92 65.7766C136.806 65.8507 136.673 65.8668 136.52 65.8248L128.343 63.5761C128.234 63.5461 128.127 63.5286 128.023 63.5234C127.922 63.5073 127.82 63.5145 127.718 63.5451C127.652 63.5737 127.593 63.6162 127.542 63.6726C127.492 63.729 127.45 63.8172 127.417 63.9371L126.828 66.0795ZM134.789 77.3634C134.942 77.4053 135.047 77.4928 135.104 77.6259C135.175 77.751 135.194 77.8735 135.161 77.9934C135.131 78.1024 135.054 78.1925 134.929 78.2637C134.811 78.3487 134.677 78.3702 134.524 78.3283L122.209 74.9417C122.057 74.8998 121.946 74.8108 121.878 74.6748C121.818 74.5527 121.803 74.4371 121.833 74.3281C121.866 74.2081 121.939 74.1111 122.054 74.037C122.182 73.9549 122.322 73.9349 122.475 73.9769L134.789 77.3634ZM138.241 78.8932L139.069 75.884C139.12 75.6987 139.209 75.5883 139.336 75.5529C139.466 75.5065 139.591 75.4999 139.711 75.5328C139.831 75.5658 139.929 75.634 140.006 75.7373C140.097 75.8327 140.117 75.973 140.066 76.1584L139.347 78.775C139.284 79.004 139.314 79.1706 139.438 79.275C139.57 79.3933 139.777 79.4915 140.061 79.5694L148.45 81.8766C148.636 81.9275 148.749 82.0056 148.79 82.1108C148.84 82.2299 148.848 82.3495 148.815 82.4694C148.782 82.5893 148.715 82.6824 148.615 82.7486C148.523 82.8288 148.384 82.8434 148.198 82.7924L139.4 80.3728C138.975 80.2559 138.644 80.0945 138.407 79.8887C138.168 79.6938 138.112 79.362 138.241 78.8932ZM151.096 76.0954C151.259 76.1404 151.371 76.2239 151.431 76.346C151.494 76.4573 151.51 76.5728 151.477 76.6927C151.444 76.8127 151.37 76.9097 151.256 76.9839C151.145 77.0471 151.007 77.0562 150.844 77.0112L138.627 73.6517C138.464 73.6067 138.35 73.5287 138.287 73.4174C138.238 73.2983 138.23 73.1788 138.263 73.0589C138.296 72.939 138.362 72.8459 138.462 72.7796C138.577 72.7055 138.716 72.6909 138.879 72.7359L151.096 76.0954ZM140.724 69.8658L141.713 66.2679C141.758 66.1043 141.846 65.9994 141.976 65.9531C142.12 65.8988 142.252 65.8882 142.371 65.9212C142.491 65.9542 142.594 66.0293 142.679 66.1465C142.767 66.2528 142.788 66.3877 142.744 66.5512L141.84 69.8384C141.81 69.9474 141.8 70.0446 141.812 70.1299C141.827 70.2043 141.855 70.2708 141.898 70.3294C141.97 70.4079 142.063 70.4745 142.177 70.5293C142.294 70.5732 142.418 70.6131 142.549 70.6491L150.677 72.8843C150.84 72.9293 150.952 73.0128 151.013 73.1349C151.087 73.2491 151.107 73.3662 151.074 73.4861C151.041 73.6061 150.962 73.7016 150.837 73.7727C150.726 73.836 150.589 73.8451 150.425 73.8001L141.888 71.4525C141.681 71.3955 141.473 71.3207 141.264 71.2281C141.066 71.1384 140.907 71.0126 140.787 70.8507C140.691 70.7305 140.641 70.5935 140.636 70.4398C140.635 70.2752 140.664 70.0838 140.724 69.8658ZM163.848 72.7067L160.626 71.8207C160.473 71.7787 160.365 71.7022 160.302 71.5909C160.253 71.4718 160.245 71.3523 160.278 71.2324C160.311 71.1125 160.377 71.0194 160.478 70.9531C160.592 70.879 160.725 70.8629 160.878 70.9049L168.319 72.9512C168.482 72.9962 168.589 73.0782 168.638 73.1973C168.701 73.3085 168.717 73.4241 168.684 73.544C168.651 73.664 168.577 73.761 168.463 73.8351C168.363 73.9014 168.231 73.912 168.067 73.867L164.829 72.9765L164.793 73.1074C164.76 73.2273 164.716 73.4087 164.661 73.6516C164.62 73.8865 164.595 74.0848 164.585 74.2464C164.568 74.3942 164.559 74.597 164.559 74.8548C164.569 75.1156 164.591 75.3329 164.626 75.5065C164.663 75.6692 164.707 75.8513 164.757 76.0527C164.821 76.2463 164.888 76.4289 164.958 76.6006C165.039 76.7753 165.141 76.9793 165.265 77.2126C165.388 77.446 165.508 77.649 165.625 77.8218C165.742 77.9946 165.869 78.1704 166.008 78.3492C166.149 78.5171 166.291 78.685 166.432 78.8529C166.55 78.9791 166.681 79.1207 166.825 79.2777C166.984 79.4268 167.116 79.563 167.223 79.6862C167.322 79.7955 167.361 79.9294 167.341 80.0881C167.332 80.2497 167.257 80.3934 167.117 80.519C167.011 80.607 166.881 80.6534 166.727 80.658C166.584 80.6656 166.431 80.6058 166.266 80.4785C166.149 80.3523 166.031 80.2261 165.913 80.0999C165.798 79.9628 165.672 79.8049 165.533 79.6261C165.395 79.4473 165.263 79.2645 165.139 79.0778C165.014 78.8911 164.891 78.6989 164.77 78.5013C164.667 78.3206 164.564 78.1399 164.461 77.9592C164.37 77.7815 164.281 77.5929 164.195 77.3933C164.109 77.1938 164.025 76.9889 163.942 76.7784C163.87 76.571 163.811 76.379 163.766 76.2024C163.746 76.1032 163.728 75.9985 163.712 75.8884C163.695 75.7783 163.677 75.6736 163.657 75.5744C163.584 75.6714 163.508 75.7739 163.432 75.8818C163.358 75.9789 163.286 76.0704 163.216 76.1566C163.125 76.2724 163.001 76.4026 162.844 76.547C162.701 76.6836 162.561 76.8092 162.424 76.924C162.276 77.0357 162.109 77.1539 161.922 77.2785C161.735 77.403 161.552 77.5167 161.371 77.6194C161.162 77.738 160.957 77.8457 160.754 77.9424C160.552 78.0392 160.351 78.1305 160.151 78.2164C159.952 78.3022 159.727 78.393 159.478 78.4887C159.232 78.5734 159.019 78.6439 158.84 78.7C158.716 78.7246 158.586 78.7064 158.45 78.6457C158.314 78.5849 158.222 78.4949 158.172 78.3758C158.115 78.2428 158.11 78.1124 158.157 77.9845C158.207 77.8458 158.297 77.7533 158.427 77.7069C158.606 77.6508 158.8 77.5867 159.007 77.5148C159.229 77.4349 159.439 77.3521 159.639 77.2662C159.824 77.1882 160.029 77.1039 160.254 77.0131C160.478 76.9224 160.673 76.8295 160.84 76.7347C161.035 76.624 161.217 76.5158 161.387 76.4101C161.571 76.2964 161.745 76.1743 161.91 76.0437C162.072 75.9241 162.226 75.7905 162.372 75.6431C162.532 75.4877 162.658 75.3466 162.752 75.2199C162.876 75.0664 162.987 74.8976 163.085 74.7133C163.182 74.5291 163.276 74.3379 163.366 74.1397C163.429 73.9931 163.497 73.8122 163.568 73.5972C163.649 73.3851 163.707 73.2191 163.74 73.0992L163.848 72.7067ZM170.137 77.5324L167.161 76.7138C166.997 76.6689 166.884 76.5908 166.821 76.4796C166.772 76.3605 166.763 76.2409 166.796 76.121C166.829 76.0011 166.896 75.908 166.996 75.8418C167.11 75.7676 167.249 75.753 167.413 75.798L170.389 76.6165L171.163 73.8037C171.214 73.6183 171.297 73.5064 171.413 73.468C171.543 73.4216 171.668 73.415 171.788 73.448C171.919 73.4839 172.023 73.5536 172.1 73.6569C172.191 73.7523 172.211 73.8926 172.16 74.078L169.957 82.0914C169.909 82.2659 169.82 82.3763 169.69 82.4226C169.571 82.472 169.446 82.4786 169.315 82.4426C169.195 82.4097 169.091 82.34 169.003 82.2337C168.926 82.1304 168.911 81.9916 168.959 81.8171L170.137 77.5324ZM158.404 82.7141C158.455 82.5288 158.528 82.3494 158.623 82.1761C158.717 82.0027 158.808 81.8636 158.896 81.7586C158.994 81.6567 159.103 81.5578 159.224 81.4618C159.358 81.358 159.48 81.2744 159.592 81.2112C159.728 81.143 159.873 81.0834 160.028 81.0321C160.186 80.97 160.327 80.9266 160.451 80.9021C160.575 80.8776 160.733 80.8566 160.925 80.8391C161.132 80.8138 161.312 80.7988 161.465 80.7942C161.644 80.7846 161.848 80.788 162.078 80.8044C162.319 80.8237 162.524 80.845 162.694 80.8682C162.896 80.9003 163.176 80.948 163.534 81.0113C163.892 81.0745 164.273 81.1616 164.676 81.2725C165.069 81.3805 165.435 81.4987 165.775 81.6274C166.125 81.759 166.39 81.8613 166.57 81.934C166.727 82.0008 166.909 82.086 167.115 82.1896C167.332 82.2961 167.52 82.4007 167.68 82.5032C167.81 82.5857 167.951 82.6892 168.105 82.8135C168.261 82.9269 168.386 83.0258 168.48 83.1103C168.585 83.1978 168.69 83.3086 168.794 83.4427C168.9 83.5659 168.995 83.6915 169.077 83.8197C169.14 83.9309 169.197 84.0639 169.249 84.2187C169.314 84.3656 169.357 84.5065 169.379 84.6414C169.4 84.7764 169.407 84.9425 169.4 85.1398C169.393 85.3372 169.363 85.5285 169.312 85.7139C169.261 85.8992 169.189 86.0786 169.094 86.2519C168.999 86.4253 168.908 86.5644 168.821 86.6693C168.736 86.7634 168.627 86.8623 168.493 86.9662C168.37 87.073 168.253 87.1581 168.141 87.2213C168.005 87.2894 167.86 87.3491 167.705 87.4004C167.547 87.4625 167.401 87.5043 167.266 87.5259C167.142 87.5504 166.984 87.5714 166.791 87.5888C166.596 87.6172 166.421 87.6337 166.268 87.6383C166.081 87.634 165.868 87.6221 165.627 87.6027C165.394 87.5973 165.192 87.583 165.023 87.5598C164.831 87.5306 164.551 87.4829 164.183 87.4167C163.825 87.3535 163.449 87.2679 163.057 87.16C162.654 87.049 162.282 86.9292 161.942 86.8006C161.602 86.6719 161.337 86.5697 161.147 86.4939C160.989 86.4272 160.804 86.335 160.59 86.2176C160.384 86.114 160.205 86.0179 160.053 85.9293C159.923 85.8467 159.776 85.7418 159.612 85.6145C159.456 85.5011 159.33 85.4022 159.236 85.3177C159.142 85.2332 159.043 85.1239 158.939 84.9898C158.833 84.8666 158.738 84.7409 158.656 84.6128C158.593 84.5016 158.53 84.3671 158.468 84.2093C158.417 84.0545 158.373 83.9135 158.338 83.7865C158.317 83.6516 158.309 83.4855 158.317 83.2881C158.324 83.0908 158.353 82.8995 158.404 82.7141ZM159.504 82.9991C159.466 83.1408 159.444 83.2816 159.441 83.4214C159.449 83.5643 159.468 83.6868 159.498 83.789C159.526 83.9021 159.57 84.0197 159.63 84.1418C159.693 84.253 159.765 84.3548 159.845 84.4472C159.944 84.5565 160.046 84.6549 160.151 84.7424C160.264 84.8438 160.384 84.9413 160.51 85.0348C160.64 85.1173 160.801 85.2144 160.993 85.3259C161.185 85.4373 161.355 85.525 161.501 85.5887C161.678 85.6724 161.947 85.7816 162.308 85.9162C162.67 86.0509 163.004 86.1602 163.309 86.2441C163.614 86.3281 163.957 86.4047 164.336 86.4739C164.716 86.5431 165.003 86.5869 165.197 86.6051C165.356 86.6253 165.541 86.6351 165.752 86.6346C165.974 86.637 166.162 86.6359 166.316 86.6313C166.484 86.6188 166.636 86.5963 166.774 86.5639C166.92 86.5453 167.058 86.5129 167.188 86.4665C167.304 86.4281 167.418 86.3773 167.529 86.314C167.643 86.2399 167.741 86.1613 167.823 86.0781C167.901 86.0059 167.975 85.9089 168.043 85.787C168.123 85.6682 168.182 85.5379 168.221 85.3962C168.26 85.2544 168.276 85.1122 168.268 84.9693C168.271 84.8295 168.258 84.7085 168.227 84.6063C168.2 84.4932 168.154 84.381 168.091 84.2698C168.031 84.1477 167.961 84.0404 167.881 83.948C167.793 83.8417 167.692 83.7379 167.579 83.6365C167.477 83.5381 167.356 83.4461 167.215 83.3605C167.089 83.267 166.928 83.17 166.733 83.0694C166.551 82.9609 166.387 82.8748 166.241 82.811C166.064 82.7273 165.795 82.6182 165.434 82.4835C165.072 82.3489 164.738 82.2396 164.433 82.1556C164.128 82.0717 163.785 81.9951 163.406 81.9259C163.026 81.8566 162.739 81.8129 162.545 81.7946C162.386 81.7744 162.196 81.7631 161.974 81.7607C161.754 81.7473 161.566 81.7484 161.41 81.764C161.256 81.7686 161.105 81.7856 160.956 81.8151C160.818 81.8475 160.679 81.8854 160.538 81.9287C160.422 81.9672 160.306 82.0234 160.192 82.0976C160.081 82.1608 159.985 82.234 159.903 82.3171C159.825 82.3894 159.746 82.4849 159.666 82.6037C159.597 82.7256 159.543 82.8574 159.504 82.9991ZM185.532 82.012L187.183 82.4663C187.347 82.5112 187.453 82.5933 187.503 82.7124C187.566 82.8236 187.581 82.9392 187.548 83.0591C187.515 83.179 187.441 83.2761 187.327 83.3502C187.227 83.4164 187.095 83.4271 186.931 83.3821L185.28 82.9279L184.146 87.0491C184.098 87.2235 184.009 87.3339 183.879 87.3802C183.749 87.4266 183.624 87.4332 183.504 87.4003C183.385 87.3673 183.281 87.2976 183.193 87.1913C183.115 87.088 183.101 86.9492 183.149 86.7747L185.622 77.78C185.673 77.5947 185.757 77.4828 185.873 77.4444C186.003 77.398 186.128 77.3913 186.248 77.4243C186.368 77.4573 186.472 77.5269 186.56 77.6332C186.651 77.7286 186.671 77.869 186.62 78.0544L185.532 82.012ZM177.454 82.7283C177.293 82.6725 177.144 82.6196 177.005 82.5697C176.877 82.5228 176.771 82.4819 176.687 82.447C176.562 82.3893 176.406 82.317 176.219 82.2303C176.042 82.1467 175.908 82.0804 175.816 82.0316C175.694 81.963 175.579 81.8903 175.471 81.8137C175.374 81.7401 175.292 81.6765 175.225 81.6228C175.161 81.5582 175.087 81.4851 175.004 81.4037C174.924 81.3113 174.864 81.2303 174.824 81.1608C174.796 81.0943 174.759 81.0139 174.715 80.9196C174.673 80.8144 174.649 80.7315 174.642 80.671C174.634 80.5748 174.632 80.4746 174.637 80.3705C174.642 80.2664 174.658 80.1652 174.685 80.0671C174.712 79.969 174.75 79.8739 174.799 79.7817C174.851 79.6787 174.903 79.5935 174.957 79.5262C174.994 79.4777 175.057 79.4188 175.146 79.3496C175.236 79.2804 175.308 79.2299 175.364 79.1983C175.433 79.1588 175.525 79.1253 175.638 79.0977C175.754 79.0593 175.856 79.0288 175.944 79.0062C176.03 78.9944 176.133 78.9818 176.254 78.9681C176.386 78.9575 176.522 78.9538 176.662 78.9571C176.766 78.9623 176.915 78.974 177.109 78.9923C177.318 79.0026 177.489 79.0203 177.622 79.0454C177.759 79.0596 177.944 79.0927 178.176 79.1448C178.411 79.1859 178.659 79.2425 178.92 79.3144C179.193 79.3894 179.441 79.4692 179.664 79.554C179.89 79.6279 180.065 79.6937 180.19 79.7515C180.307 79.7954 180.457 79.8661 180.642 79.9637C180.829 80.0504 180.969 80.1181 181.061 80.1669C181.183 80.2356 181.292 80.3067 181.389 80.3803C181.497 80.4569 181.585 80.522 181.652 80.5757C181.727 80.6433 181.799 80.7218 181.869 80.8112C181.941 80.8897 181.997 80.9637 182.036 81.0332C182.079 81.0918 182.121 81.1737 182.162 81.279C182.204 81.3842 182.228 81.467 182.235 81.5275C182.246 81.6129 182.248 81.713 182.24 81.828C182.235 81.9322 182.219 82.0333 182.192 82.1314C182.165 82.2295 182.127 82.3247 182.078 82.4168C182.029 82.5089 181.976 82.5941 181.92 82.6723C181.883 82.7208 181.82 82.7797 181.73 82.8489C181.644 82.9073 181.566 82.9562 181.497 82.9957C181.427 83.0352 181.34 83.0757 181.235 83.1171C181.132 83.1477 181.032 83.1727 180.932 83.1924C180.847 83.2041 180.738 83.2153 180.607 83.2259C180.486 83.2395 180.355 83.2447 180.215 83.2414C180.111 83.2363 179.956 83.223 179.751 83.2018C179.546 83.1805 179.38 83.1643 179.255 83.1531C179.164 83.14 179.047 83.1195 178.902 83.0914C178.768 83.0663 178.618 83.0367 178.452 83.0027L178.128 84.1802C178.232 84.1853 178.322 84.1984 178.398 84.2194C178.486 84.2434 178.569 84.2604 178.648 84.2705C179.014 84.3476 179.387 84.4208 179.766 84.4901C180.157 84.5623 180.511 84.6186 180.828 84.6589C181.03 84.6911 181.29 84.7273 181.607 84.7677C181.925 84.808 182.175 84.8358 182.358 84.8511C182.474 84.8593 182.567 84.9026 182.639 84.9811C182.715 85.0487 182.745 85.1509 182.731 85.2877C182.714 85.4355 182.666 85.5454 182.587 85.6177C182.509 85.6899 182.412 85.7219 182.297 85.7138C182.114 85.6985 181.891 85.6782 181.628 85.6528C181.368 85.6166 181.125 85.5848 180.898 85.5576C180.548 85.5082 180.198 85.4589 179.848 85.4096C179.501 85.3493 179.183 85.2911 178.893 85.235C178.524 85.1688 178.101 85.0875 177.623 84.9913C177.148 84.8842 176.761 84.8011 176.46 84.7419C176.185 84.6779 175.772 84.5818 175.22 84.4537C174.669 84.3256 174.301 84.236 174.116 84.1851L173.02 83.8837C172.867 83.8418 172.754 83.7637 172.68 83.6495C172.609 83.5244 172.59 83.4018 172.623 83.2819C172.656 83.162 172.728 83.0704 172.839 83.0072C172.964 82.936 173.108 82.9229 173.272 82.9679L174.531 83.3142C174.782 83.3832 175.105 83.4662 175.5 83.5632C175.896 83.6602 176.231 83.7408 176.507 83.8048C176.572 83.8228 176.66 83.8468 176.769 83.8768C176.881 83.8959 176.997 83.9219 177.117 83.9549L177.454 82.7283ZM175.732 80.355C175.717 80.4095 175.706 80.4709 175.699 80.5393C175.706 80.5999 175.714 80.6549 175.724 80.7045C175.744 80.7571 175.771 80.8112 175.802 80.8668C175.834 80.9224 175.867 80.9726 175.902 81.0173C175.947 81.065 175.998 81.1142 176.054 81.1649C176.122 81.2186 176.191 81.2668 176.261 81.3096C176.35 81.3693 176.452 81.4265 176.565 81.4813C176.679 81.5361 176.799 81.5924 176.924 81.6502C177.051 81.6971 177.232 81.7644 177.466 81.8522C177.711 81.9429 177.942 82.0183 178.16 82.0783C178.389 82.1412 178.627 82.1948 178.873 82.2389C179.129 82.2861 179.325 82.3222 179.459 82.3473C179.584 82.3585 179.71 82.3696 179.836 82.3808C179.962 82.392 180.084 82.3962 180.202 82.3935C180.295 82.3957 180.379 82.3894 180.454 82.3747C180.528 82.36 180.597 82.3437 180.661 82.326C180.724 82.3083 180.778 82.2821 180.823 82.2475C180.878 82.2159 180.929 82.1828 180.973 82.1482C181.007 82.1106 181.037 82.066 181.063 82.0145C181.103 81.9551 181.13 81.8981 181.145 81.8436C181.16 81.7891 181.164 81.7316 181.157 81.671C181.164 81.6026 181.163 81.5436 181.153 81.494C181.135 81.4305 181.109 81.3764 181.075 81.3317C181.054 81.2791 181.021 81.2289 180.975 81.1812C180.93 81.1335 180.879 81.0843 180.822 81.0336C180.766 80.9829 180.697 80.9347 180.616 80.8889C180.516 80.8262 180.409 80.7675 180.295 80.7127C180.184 80.647 180.07 80.5922 179.953 80.5483C179.828 80.4906 179.642 80.4217 179.394 80.3419C179.16 80.2541 178.929 80.1787 178.7 80.1158C178.482 80.0558 178.245 80.0023 177.988 79.9551C177.745 79.9 177.555 79.8654 177.418 79.8512C177.285 79.8262 177.153 79.8135 177.024 79.8132C176.898 79.8021 176.782 79.7993 176.675 79.805C176.592 79.8059 176.509 79.8121 176.423 79.8239C176.349 79.8386 176.28 79.8548 176.216 79.8725C176.164 79.8932 176.11 79.9194 176.054 79.951C176.001 79.9717 175.951 80.0048 175.904 80.0504C175.87 80.088 175.833 80.1365 175.793 80.1959C175.767 80.2474 175.747 80.3004 175.732 80.355ZM175.204 76.5158L183.3 78.742C183.452 78.784 183.56 78.8606 183.623 78.9718C183.69 79.0721 183.706 79.1822 183.673 79.3022C183.643 79.4112 183.573 79.4973 183.462 79.5606C183.35 79.6238 183.218 79.6344 183.066 79.5925L174.971 77.3663C174.818 77.3243 174.71 77.2477 174.647 77.1365C174.584 77.0253 174.567 76.9152 174.597 76.8061C174.63 76.6862 174.7 76.6001 174.809 76.5477C174.92 76.4845 175.052 76.4739 175.204 76.5158ZM177.772 75.3044L181.697 76.3838C181.86 76.4288 181.973 76.5069 182.037 76.6181C182.1 76.7293 182.115 76.8448 182.082 76.9648C182.049 77.0847 181.976 77.1817 181.861 77.2559C181.75 77.3191 181.613 77.3282 181.449 77.2833L177.524 76.2039C177.372 76.1619 177.264 76.0853 177.2 75.9741C177.14 75.852 177.127 75.731 177.16 75.6111C177.193 75.4911 177.265 75.3996 177.376 75.3363C177.487 75.2731 177.619 75.2625 177.772 75.3044ZM173.957 85.3376L182.935 87.8067C183.066 87.8426 183.182 87.892 183.282 87.9547C183.385 88.0064 183.467 88.0701 183.528 88.1456C183.6 88.2241 183.649 88.3254 183.673 88.4494C183.701 88.5625 183.689 88.7117 183.638 88.8971L182.752 92.1188C182.704 92.2932 182.615 92.4036 182.485 92.45C182.355 92.4963 182.23 92.503 182.11 92.47C181.99 92.437 181.886 92.3674 181.798 92.2611C181.721 92.1578 181.707 92.0189 181.755 91.8445L182.488 89.1788C182.533 89.0152 182.533 88.8863 182.489 88.792C182.458 88.6898 182.361 88.6162 182.197 88.5712L173.71 86.2371C173.535 86.1891 173.416 86.1095 173.353 85.9983C173.304 85.8792 173.296 85.7597 173.329 85.6397C173.362 85.5198 173.428 85.4267 173.529 85.3605C173.64 85.2973 173.783 85.2896 173.957 85.3376ZM199.813 87.9799L201.546 88.4566C201.71 88.5016 201.816 88.5836 201.866 88.7028C201.929 88.814 201.944 88.9295 201.911 89.0495C201.878 89.1694 201.804 89.2664 201.69 89.3406C201.59 89.4068 201.458 89.4174 201.294 89.3724L199.561 88.8957L197.555 96.1896C197.507 96.3641 197.418 96.4744 197.288 96.5208C197.169 96.5701 197.05 96.5783 196.93 96.5453C196.81 96.5123 196.706 96.4427 196.618 96.3364C196.541 96.2331 196.526 96.0942 196.574 95.9198L200.442 81.8553C200.493 81.67 200.576 81.5581 200.692 81.5197C200.822 81.4733 200.947 81.4667 201.067 81.4996C201.187 81.5326 201.286 81.6008 201.363 81.7041C201.454 81.7995 201.474 81.9398 201.423 82.1252L199.813 87.9799ZM192.346 79.6291L196.337 80.7265C196.5 80.7715 196.612 80.855 196.672 80.9771C196.744 81.1022 196.763 81.2247 196.73 81.3447C196.697 81.4646 196.618 81.5601 196.493 81.6313C196.378 81.7054 196.239 81.72 196.076 81.675L192.086 80.5777C191.933 80.5357 191.821 80.4522 191.75 80.327C191.69 80.2049 191.676 80.0839 191.709 79.964C191.742 79.8441 191.816 79.747 191.93 79.6729C192.055 79.6017 192.194 79.5872 192.346 79.6291ZM189.594 81.8978L197.558 84.0881C197.711 84.13 197.812 84.2106 197.861 84.3297C197.914 84.4379 197.923 84.552 197.89 84.6719C197.857 84.7918 197.789 84.8904 197.686 84.9675C197.586 85.0337 197.459 85.0459 197.307 85.0039L189.342 82.8137C189.2 82.7747 189.098 82.6996 189.035 82.5884C188.974 82.4663 188.961 82.3453 188.994 82.2253C189.027 82.1054 189.099 82.0138 189.21 81.9506C189.324 81.8764 189.452 81.8589 189.594 81.8978ZM188.341 88.3082C188.404 88.0792 188.491 87.8508 188.6 87.623C188.713 87.3842 188.809 87.2054 188.888 87.0866C188.982 86.9598 189.089 86.8252 189.211 86.6826C189.332 86.5401 189.454 86.4154 189.577 86.3085C189.697 86.2126 189.827 86.1251 189.966 86.046C190.108 85.9561 190.233 85.8849 190.341 85.8326C190.463 85.7724 190.595 85.7206 190.736 85.6773C190.877 85.6339 191.009 85.6 191.133 85.5755C191.268 85.5539 191.42 85.5369 191.587 85.5243C191.766 85.5148 191.914 85.5087 192.032 85.5059C192.172 85.5092 192.337 85.5254 192.529 85.5546C192.72 85.5838 192.898 85.6208 193.061 85.6658C193.236 85.7138 193.412 85.7742 193.592 85.8469C193.771 85.9197 193.922 85.9904 194.044 86.0591C194.154 86.1248 194.279 86.2059 194.416 86.3024C194.554 86.3989 194.67 86.4894 194.764 86.5739C194.869 86.6614 194.971 86.7598 195.07 86.8691C195.169 86.9784 195.255 87.0901 195.329 87.2043C195.396 87.3046 195.467 87.4297 195.543 87.5796C195.622 87.7186 195.683 87.8586 195.726 87.9995C195.778 88.1543 195.819 88.324 195.85 88.5085C195.892 88.6961 195.916 88.8667 195.921 89.0204C195.939 89.1662 195.936 89.3705 195.91 89.6333C195.888 89.8851 195.845 90.1255 195.782 90.3545C195.719 90.5835 195.632 90.8173 195.519 91.0561C195.409 91.284 195.309 91.4558 195.219 91.5716C195.136 91.7014 195.029 91.836 194.897 91.9756C194.775 92.1181 194.653 92.2428 194.53 92.3497C194.424 92.4377 194.3 92.5267 194.158 92.6167C194.016 92.7066 193.89 92.7778 193.782 92.8301C193.663 92.8794 193.532 92.9312 193.388 92.9854C193.247 93.0288 193.109 93.0612 192.974 93.0828C192.85 93.1073 192.704 93.1258 192.536 93.1384C192.369 93.1509 192.221 93.157 192.092 93.1568C191.952 93.1535 191.786 93.1373 191.595 93.1081C191.404 93.0789 191.221 93.0404 191.046 92.9924C190.883 92.9474 190.711 92.8886 190.532 92.8158C190.353 92.743 190.202 92.6723 190.08 92.6036C189.98 92.5409 189.856 92.4598 189.707 92.3603C189.57 92.2638 189.448 92.1718 189.343 92.0843C189.249 91.9998 189.153 91.9029 189.054 91.7936C188.958 91.6734 188.871 91.5617 188.794 91.4584C188.728 91.3581 188.657 91.233 188.581 91.0831C188.505 90.9332 188.438 90.7917 188.381 90.6587C188.33 90.5039 188.288 90.3342 188.257 90.1497C188.226 89.9651 188.202 89.7945 188.187 89.6378C188.179 89.495 188.186 89.2976 188.209 89.0458C188.234 88.783 188.278 88.5372 188.341 88.3082ZM189.376 88.5752C189.331 88.7387 189.293 88.9216 189.26 89.1239C189.242 89.3182 189.238 89.4813 189.249 89.6133C189.255 89.7204 189.275 89.8607 189.309 90.0344C189.343 90.208 189.388 90.3668 189.442 90.5107C189.494 90.6189 189.547 90.7271 189.599 90.8353C189.665 90.9356 189.742 91.0389 189.83 91.1452C189.903 91.2237 189.986 91.3052 190.08 91.3897C190.174 91.4742 190.284 91.5632 190.411 91.6567C190.519 91.7333 190.65 91.8104 190.805 91.8881C190.973 91.9579 191.139 92.0152 191.303 92.0602C191.477 92.1082 191.654 92.1453 191.835 92.1714C192.018 92.1867 192.171 92.1875 192.292 92.1739C192.448 92.1583 192.589 92.1383 192.713 92.1138C192.837 92.0892 192.944 92.0602 193.036 92.0267C193.166 91.9804 193.285 91.931 193.393 91.8787C193.504 91.8155 193.61 91.7507 193.71 91.6845C193.831 91.5885 193.95 91.4747 194.068 91.3431C194.186 91.2114 194.275 91.1011 194.335 91.0119C194.412 90.904 194.486 90.7604 194.559 90.581C194.646 90.3938 194.712 90.2184 194.757 90.0548C194.802 89.8913 194.833 89.7123 194.851 89.518C194.884 89.3157 194.894 89.1487 194.884 89.0167C194.878 88.9096 194.858 88.7693 194.824 88.5956C194.792 88.4111 194.748 88.2523 194.691 88.1193C194.638 88.0111 194.579 87.9069 194.513 87.8065C194.45 87.6953 194.374 87.5866 194.286 87.4803C194.225 87.4048 194.147 87.3248 194.053 87.2403C193.962 87.1449 193.852 87.0559 193.722 86.9733C193.625 86.8997 193.492 86.828 193.324 86.7583C193.158 86.6776 192.988 86.6132 192.814 86.5653C192.65 86.5203 192.477 86.4902 192.293 86.4749C192.124 86.4518 191.973 86.4455 191.841 86.4561C191.687 86.4607 191.547 86.4808 191.42 86.5162C191.296 86.5407 191.183 86.5683 191.081 86.5988C190.951 86.6451 190.83 86.6999 190.719 86.7632C190.621 86.8185 190.523 86.8793 190.422 86.9455C190.305 87.0305 190.186 87.1443 190.065 87.2869C189.946 87.4185 189.857 87.5289 189.798 87.6181C189.721 87.726 189.639 87.8736 189.553 88.0608C189.48 88.2402 189.421 88.4116 189.376 88.5752ZM211.721 91.9583L209.53 91.3557C209.377 91.3137 209.271 91.2316 209.21 91.1095C209.15 90.9874 209.136 90.8664 209.169 90.7465C209.202 90.6266 209.275 90.535 209.386 90.4717C209.5 90.3976 209.633 90.3815 209.786 90.4235L211.977 91.0261L213.448 85.6784C213.499 85.493 213.583 85.3811 213.699 85.3427C213.818 85.2934 213.937 85.2852 214.057 85.3182C214.177 85.3512 214.276 85.4193 214.353 85.5226C214.444 85.618 214.464 85.7584 214.413 85.9437L210.725 99.354C210.677 99.5284 210.588 99.6388 210.458 99.6852C210.339 99.7345 210.219 99.7427 210.1 99.7097C209.98 99.6767 209.881 99.6086 209.804 99.5053C209.727 99.402 209.712 99.2631 209.76 99.0887L211.721 91.9583ZM202.251 96.0738C202.107 96.128 201.954 96.1327 201.79 96.0877C201.64 96.0348 201.532 95.9404 201.463 95.8044C201.381 95.6763 201.367 95.5374 201.42 95.3877C201.473 95.2381 201.564 95.1401 201.694 95.0938C202.085 94.9082 202.489 94.6968 202.906 94.4597C203.334 94.2255 203.743 93.9978 204.132 93.7765C204.441 93.5917 204.757 93.3796 205.081 93.1403C205.416 92.904 205.727 92.6671 206.015 92.4297C206.228 92.2536 206.441 92.0543 206.655 91.8316C206.868 91.6089 207.06 91.4035 207.229 91.2154C207.387 91.0244 207.522 90.8506 207.636 90.6941C207.752 90.5268 207.88 90.3391 208.019 90.1312C208.145 89.9311 208.272 89.7023 208.402 89.4447C208.542 89.1901 208.652 88.9623 208.73 88.7611C208.803 88.5818 208.888 88.3588 208.985 88.0922C209.092 87.8287 209.182 87.566 209.254 87.3044L209.555 86.2087C209.603 86.0342 209.576 85.8978 209.474 85.7994C209.373 85.701 209.24 85.6293 209.076 85.5843L205.446 84.5859C205.293 84.544 205.181 84.4604 205.11 84.3353C205.05 84.2132 205.036 84.0922 205.069 83.9722C205.102 83.8523 205.174 83.7607 205.285 83.6975C205.41 83.6264 205.549 83.6118 205.702 83.6537L209.97 84.8276C210.09 84.8605 210.211 84.9114 210.333 84.9801C210.458 85.0378 210.553 85.1169 210.62 85.2172C210.678 85.3036 210.714 85.4073 210.728 85.5283C210.744 85.6384 210.733 85.7644 210.694 85.9061L210.375 87.0672C210.309 87.3071 210.217 87.5985 210.099 87.9414C209.992 88.2872 209.904 88.5444 209.834 88.7129C209.746 88.9467 209.63 89.2197 209.486 89.5318C209.352 89.8469 209.218 90.1208 209.084 90.3536C208.904 90.6676 208.743 90.934 208.6 91.1529C208.461 91.3608 208.304 91.5698 208.129 91.7796C207.954 91.9895 207.75 92.2207 207.516 92.4731C207.285 92.7145 207.062 92.9288 206.847 93.1158C206.648 93.2839 206.427 93.4694 206.184 93.6722C205.943 93.8641 205.699 94.049 205.451 94.227C205.25 94.3595 204.999 94.5251 204.698 94.7238C204.411 94.9146 204.143 95.0811 203.892 95.2234C203.642 95.3657 203.36 95.5168 203.046 95.6768C202.744 95.8398 202.479 95.9721 202.251 96.0738ZM213.241 100.503C213.193 100.678 213.104 100.788 212.974 100.834C212.855 100.884 212.736 100.892 212.616 100.859C212.485 100.823 212.375 100.752 212.287 100.646C212.21 100.542 212.196 100.403 212.244 100.229L216.111 86.1645C216.162 85.9792 216.246 85.8673 216.362 85.8288C216.492 85.7825 216.622 85.7773 216.753 85.8133C216.873 85.8463 216.972 85.9144 217.049 86.0177C217.14 86.1131 217.16 86.2535 217.109 86.4388L213.241 100.503ZM218.867 97.5823L221.075 88.3387C221.118 88.1394 221.22 87.98 221.382 87.8603C221.544 87.7406 221.734 87.7108 221.952 87.7708C222.17 87.8307 222.318 87.9535 222.396 88.1391C222.474 88.3248 222.481 88.5142 222.416 88.7074L219.587 97.7802C219.537 97.919 219.469 98.0175 219.382 98.0758C219.296 98.1342 219.204 98.1498 219.105 98.1228C219.007 98.0959 218.936 98.0352 218.892 97.9409C218.847 97.8466 218.839 97.7271 218.867 97.5823ZM218.589 100.127C218.709 100.16 218.812 100.212 218.899 100.282C218.985 100.353 219.055 100.437 219.111 100.534C219.177 100.635 219.211 100.744 219.214 100.862C219.228 100.983 219.218 101.103 219.185 101.223C219.155 101.332 219.105 101.43 219.034 101.516C218.972 101.616 218.885 101.698 218.773 101.761C218.676 101.816 218.572 101.852 218.462 101.869C218.352 101.885 218.237 101.877 218.117 101.844C218.008 101.814 217.905 101.762 217.808 101.689C217.722 101.618 217.651 101.534 217.596 101.437C217.544 101.329 217.511 101.214 217.497 101.093C217.48 100.983 217.487 100.873 217.517 100.764C217.55 100.644 217.603 100.536 217.677 100.439C217.75 100.342 217.836 100.266 217.933 100.21C218.031 100.155 218.134 100.119 218.244 100.102C218.365 100.089 218.48 100.097 218.589 100.127Z" fill="black"/>
</svg>
